<svg width="608" height="532" viewBox="0 0 608 532" fill="none" xmlns="http://www.w3.org/2000/svg">
<path fill-rule="evenodd" clip-rule="evenodd" d="M381.19 79.2618C366.643 96.9375 359.911 118.234 360.792 138.365L255.587 220.46L120.185 300.039C102.104 292.26 80.3892 290.862 59.1303 297.675C53.7111 299.412 48.5984 300.948 43.8245 302.382C10.4055 312.423 -6.40592 317.474 4.49959 351.5C36.0789 432.632 59.5453 451.352 100.623 439.601C93.1462 467.964 100.77 497.86 122.934 516.101C154.464 542.051 203.478 534.589 232.41 499.436C246.836 481.908 253.546 460.805 252.739 440.833L403.996 322.783L482.445 285.019C500.973 293.583 523.572 295.343 545.682 288.257C589.21 274.306 619.994 217.5 601.994 146.876C591.559 114.319 558.126 126.361 522.065 139.349L522.058 139.352C518.895 140.491 515.712 141.637 512.522 142.762C521.6 113.292 514.249 81.5808 491.101 62.5301C459.446 36.4774 410.238 43.9685 381.19 79.2618Z" fill="#544B43"/>
<path fill-rule="evenodd" clip-rule="evenodd" d="M381.19 79.2618C366.643 96.9375 359.911 118.234 360.792 138.365L255.587 220.46L120.185 300.039C102.104 292.26 80.3892 290.862 59.1303 297.675C53.7111 299.412 48.5984 300.948 43.8245 302.382C10.4055 312.423 -6.40592 317.474 4.49959 351.5C36.0789 432.632 59.5453 451.352 100.623 439.601C93.1462 467.964 100.77 497.86 122.934 516.101C154.464 542.051 203.478 534.589 232.41 499.436C246.836 481.908 253.546 460.805 252.739 440.833L403.996 322.783L482.445 285.019C500.973 293.583 523.572 295.343 545.682 288.257C589.21 274.306 619.994 217.5 601.994 146.876C591.559 114.319 558.126 126.361 522.065 139.349L522.058 139.352C518.895 140.491 515.712 141.637 512.522 142.762C521.6 113.292 514.249 81.5808 491.101 62.5301C459.446 36.4774 410.238 43.9685 381.19 79.2618Z" fill="black" fill-opacity="0.25"/>
<path fill-rule="evenodd" clip-rule="evenodd" d="M381.196 32.2618C366.648 49.9378 359.917 71.235 360.798 91.3654L255.593 173.46L120.191 253.039C102.11 245.26 80.3957 243.862 59.1369 250.676C15.7806 264.571 -9.26304 307.36 3.2003 346.247C15.3156 384.047 58.4125 404.246 100.635 392.581C93.1486 420.949 100.771 450.856 122.941 469.102C154.47 495.051 203.484 487.59 232.417 452.436C246.842 434.908 253.552 413.806 252.745 393.834L404.002 275.783L482.451 238.019C500.979 246.583 523.578 248.343 545.687 241.257C589.215 227.306 614.359 184.347 601.846 145.306C590.46 109.782 551.821 89.7423 512.159 96.9301C521.797 67.1336 514.56 34.8329 491.107 15.5301C459.452 -10.5226 410.243 -3.03151 381.196 32.2618Z" fill="#544B43"/>
</svg>
